<svg width="120" height="120" viewBox="0 0 120 120" fill="none" xmlns="http://www.w3.org/2000/svg">
<path d="M96.0908 53.4101C94.5349 51.3152 92.4805 50.1254 89.9483 49.8508C91.25 47.3491 92.2669 44.7864 92.989 42.1627C93.7212 39.539 94.0771 37.0271 94.0771 34.6169C94.0771 29.9593 92.8466 26.5729 90.3856 24.4576C87.9144 22.3525 84.8025 21.7932 81.0297 22.8101V12.2034L72.3347 17.2271V27.2034L64.8805 31.5051L63.6398 32.2271V22.2508L63.0805 22.5763L61.5145 23.4813L54.9449 27.2746V37.2508L41.8975 44.7864V54.7627L50.5925 49.739V99.6407L41.8975 104.664V114.641L45.6805 112.454L54.9449 107.105V117.091L63.6398 112.068V102.091L72.3347 97.0678V107.044L81.0297 102.03V92.044C85.8195 89.2881 89.9076 84.9661 93.3144 79.0881C96.7212 73.2101 98.4297 67.5356 98.4297 62.044C98.4297 58.383 97.6467 55.5051 96.0908 53.4101ZM59.2873 44.7152L70.25 38.3898L76.6873 34.6779C79.0771 33.2949 81.1212 33.0915 82.8297 34.0576C84.528 35.0339 85.3822 36.8949 85.3822 39.6305C85.3822 42.3661 84.528 45.2237 82.8297 48.1627C81.4466 50.5322 79.85 52.4034 78.0195 53.7559C77.5924 54.0813 77.1449 54.3762 76.6873 54.6407L69.2331 58.9423L59.2873 64.6779V44.7152ZM87.172 75.5898C85.4737 78.5288 83.4297 80.6847 81.0297 82.0678L59.2873 94.6169V74.6542L74.633 65.7966L81.0297 62.1051C83.4297 60.722 85.4737 60.5186 87.172 61.4949C88.8805 62.461 89.7349 64.322 89.7349 67.0678C89.7349 69.8135 88.8805 72.6508 87.172 75.5898Z" fill="#2966CB" stroke="white" stroke-width="0.20339" stroke-linecap="round" stroke-linejoin="round"/>
<path d="M85.3819 39.6304C85.3819 42.3762 84.5277 45.2237 82.8294 48.1626C81.4463 50.5321 79.8497 52.4033 78.0192 53.7559C77.5921 54.0813 77.1446 54.3762 76.6869 54.6406L69.2328 58.9423L59.2869 64.6779V44.7152L70.2497 38.3898L76.6869 34.6779C79.0768 33.2949 81.1209 33.0915 82.8294 34.0576C84.5277 35.0338 85.3819 36.8949 85.3819 39.6304Z" fill="white" stroke="white" stroke-width="0.20339" stroke-linecap="round" stroke-linejoin="round"/>
<path d="M89.7345 67.0678C89.7345 69.8135 88.8803 72.6508 87.1718 75.5898C85.4735 78.5288 83.4293 80.6847 81.0293 82.0678L59.2869 94.6169V74.6542L74.6327 65.7966L81.0293 62.105C83.4293 60.722 85.4735 60.5186 87.1718 61.4949C88.8803 62.461 89.7345 64.322 89.7345 67.0678Z" fill="white" stroke="white" stroke-width="0.20339" stroke-linecap="round" stroke-linejoin="round"/>
<path d="M41.8975 104.664V114.641L21.5585 104.471V94.4949L30.8127 99.122L34.606 101.024L40.0873 103.759L41.8975 104.664Z" fill="#2966CB" stroke="white" stroke-width="0.20339" stroke-linecap="round" stroke-linejoin="round"/>
<path d="M50.5922 49.739V99.6407L43.3007 96L30.2532 89.4712V48.9458L38.9482 53.2882L40.0769 53.8577L41.8973 54.7627L50.5922 49.739Z" fill="#2966CB" stroke="white" stroke-width="0.20339" stroke-linecap="round" stroke-linejoin="round"/>
<path d="M54.9451 27.2745V37.2507L43.8603 31.7084L34.6061 27.0813V17.105L43.301 21.4575L43.8603 21.7321L53.1248 26.3694L54.9451 27.2745Z" fill="#2966CB" stroke="white" stroke-width="0.20339" stroke-linecap="round" stroke-linejoin="round"/>
<path d="M72.3346 27.2035L64.8804 31.5052L63.6398 32.2272V22.8611L72.3346 27.2035Z" fill="#2966CB" stroke="white" stroke-width="0.20339" stroke-linecap="round" stroke-linejoin="round"/>
<path d="M63.64 22.2508L63.0807 22.5762L61.5147 23.4813L54.9451 27.2745L53.1248 26.3694L43.8603 21.7321L43.301 21.4576L34.6061 17.105L43.301 12.0813L51.9959 16.4338L63.64 22.2508Z" fill="#2966CB" stroke="white" stroke-width="0.20339" stroke-linecap="round" stroke-linejoin="round"/>
<path d="M72.3345 17.2983V27.2034L63.6397 22.861V22.2508L51.9955 16.4339V7.05762L60.6905 11.4102L62.4396 12.2847L72.2939 17.2068C72.2939 17.2068 72.3243 17.2678 72.3345 17.2983Z" fill="#2966CB" stroke="white" stroke-width="0.20339" stroke-linecap="round" stroke-linejoin="round"/>
<path d="M81.0295 12.2034L72.3345 17.2272L72.2939 17.2068L62.4396 12.2848L60.6905 11.4102L51.9955 7.05766L60.6905 2.03394L81.0295 12.2034Z" fill="#2966CB" stroke="white" stroke-width="0.20339" stroke-linecap="round" stroke-linejoin="round"/>
<path d="M54.945 37.2508L41.8975 44.7864L38.9483 43.3118L21.5585 34.6169L34.606 27.0813L43.8602 31.7084L54.945 37.2508Z" fill="#2966CB" stroke="white" stroke-width="0.20339" stroke-linecap="round" stroke-linejoin="round"/>
<path d="M41.8975 44.7864V54.7627L40.0772 53.8576L38.9483 53.2881L30.2535 48.9458L21.5585 44.5932V34.6169L38.9483 43.3119L41.8975 44.7864Z" fill="#2966CB" stroke="white" stroke-width="0.20339" stroke-linecap="round" stroke-linejoin="round"/>
<path d="M50.5925 99.6407L41.8975 104.664L40.0873 103.759L34.606 101.024L30.8127 99.122L21.5585 94.4949L30.2535 89.4712L43.3009 96L50.5925 99.6407Z" fill="#2966CB" stroke="white" stroke-width="0.20339" stroke-linecap="round" stroke-linejoin="round"/>
<path d="M54.9446 107.105V117.091L45.6802 112.454L54.9446 107.105Z" fill="#2966CB" stroke="white" stroke-width="0.20339" stroke-linecap="round" stroke-linejoin="round"/>
<path d="M72.3346 97.0679V107.044L63.6398 102.702V102.092L72.3346 97.0679Z" fill="#2966CB" stroke="white" stroke-width="0.20339" stroke-linecap="round" stroke-linejoin="round"/>
</svg>
