<svg width="120" height="120" viewBox="0 0 120 120" fill="none" xmlns="http://www.w3.org/2000/svg">
<path d="M97.8949 32.8862L85.0321 40.3143L66.3875 51.0747L52.6915 58.9788L42.08 65.1077V57.1044L74.6785 38.2813L85.0321 32.311L90.4668 29.1672L97.8949 32.8862Z" fill="white" stroke="white" stroke-width="0.198347" stroke-linecap="round" stroke-linejoin="round"/>
<path d="M85.0319 24.3076L83.0385 25.458L35.1078 53.1274V117.164L104.867 76.8894V12.853L85.0319 24.3076ZM97.8946 42.9919L85.0319 62.8266L83.1573 65.7125L42.0797 78.02V73.1109L68.0135 58.1357L85.0319 48.3175L95.9807 42.0001L97.8946 40.8894V42.9919ZM97.8946 32.8861L85.0319 40.3142L66.3872 51.0745L52.6913 58.9786L42.0797 65.1076V57.1043L74.6782 38.2811L85.0319 32.3109L90.4666 29.1671L97.8946 24.8828V32.8861Z" fill="#2966CB" stroke="white" stroke-width="0.198347" stroke-linecap="round" stroke-linejoin="round"/>
<path d="M97.8949 24.8831V32.8864L90.4668 29.1674L97.8949 24.8831Z" fill="#2966CB" stroke="white" stroke-width="0.198347" stroke-linecap="round" stroke-linejoin="round"/>
<path d="M83.1576 65.7126L42.08 78.02V73.111L68.0138 58.1357L83.1576 65.7126Z" fill="white" stroke="white" stroke-width="0.198347" stroke-linecap="round" stroke-linejoin="round"/>
<path d="M97.8944 40.8894V42.9522L95.9805 42.0001L97.8944 40.8894Z" fill="#2966CB" stroke="white" stroke-width="0.198347" stroke-linecap="round" stroke-linejoin="round"/>
<path d="M97.8944 42.9521V42.9917L85.0316 62.8264L83.1571 65.7124L68.0133 58.1355L85.0316 48.3174L95.9805 42L97.8944 42.9521Z" fill="white" stroke="white" stroke-width="0.198347" stroke-linecap="round" stroke-linejoin="round"/>
<path d="M35.1078 53.1276V117.164L15.2731 107.246V43.2102L22.7012 46.9193L30.1293 50.6383L35.1078 53.1276Z" fill="#2966CB" stroke="white" stroke-width="0.198347" stroke-linecap="round" stroke-linejoin="round"/>
<path d="M104.867 12.8531L85.0319 24.3077L83.0385 25.4581L35.1078 53.1275L30.1293 50.6383L22.7012 46.9193L15.2731 43.2102L85.0319 2.93579L104.867 12.8531Z" fill="#2966CB" stroke="white" stroke-width="0.198347" stroke-linecap="round" stroke-linejoin="round"/>
</svg>
