<svg width="120" height="120" viewBox="0 0 120 120" fill="none" xmlns="http://www.w3.org/2000/svg">
<path d="M86.2968 25.0469L66.1346 36.6848L46.583 47.971V94.1814L89.7727 69.2504L106.986 59.309V13.0986L86.2968 25.0469ZM53.2968 82.6055V74.8986C54.3934 74.2676 55.407 73.9469 56.3174 73.9676C56.9277 73.9676 57.4967 74.1331 58.0346 74.4331C59.3484 75.1779 60.0001 76.6159 60.0001 78.7262L53.2968 82.6055ZM58.8932 52.8124C58.645 53.371 58.3657 53.9297 58.0346 54.4986C56.7208 56.7745 55.1382 58.44 53.2968 59.5055V51.7986L60.0001 47.9297C60.0001 49.5124 59.6381 51.1366 58.8932 52.8124ZM86.814 48.7469C86.814 48.9228 86.7933 49.109 86.7726 49.2952C86.7726 49.4814 86.7415 49.6676 86.7105 49.8435C86.6795 50.1021 86.6484 50.3607 86.5967 50.6193C86.5657 50.8159 86.5346 51.0021 86.4829 51.1986C86.4208 51.509 86.3485 51.8297 86.2658 52.1504C86.183 52.4607 86.1002 52.771 85.9864 53.0917C85.976 53.1642 85.945 53.2469 85.9139 53.3297C85.8622 53.4952 85.8105 53.6607 85.7381 53.8262C85.5105 54.4779 85.2312 55.1504 84.9105 55.8124C84.7967 56.0607 84.6726 56.309 84.5381 56.5676C84.3415 56.9504 84.1346 57.3228 83.9174 57.7055C82.4588 60.209 80.7726 62.2366 78.8484 63.7779C78.1864 64.3055 77.4933 64.7814 76.7795 65.1952C76.5933 65.2986 76.407 65.4021 76.2312 65.4952C73.8105 66.7676 71.7208 66.9641 69.9519 66.0952C69.8484 66.0538 69.7553 65.9917 69.6519 65.94C67.8622 64.9159 66.8899 63.0228 66.7347 60.2607C66.7244 60.0021 66.7139 59.7331 66.7139 59.4538C66.7139 56.2469 67.6967 52.9469 69.6519 49.5745C70.9139 47.3917 72.3623 45.571 73.9865 44.1331C74.8658 43.3366 75.7967 42.6538 76.7795 42.0848C77.7726 41.5159 78.7036 41.1228 79.5829 40.8952C81.207 40.471 82.645 40.6159 83.9174 41.34C85.0243 41.971 85.8209 42.9435 86.2968 44.2469C86.6589 45.24 86.845 46.44 86.845 47.8262C86.845 48.1366 86.8347 48.4366 86.814 48.7469ZM100.273 55.4814L93.5588 59.3607C93.5588 59.0917 93.5691 58.8331 93.5898 58.5641C93.6001 58.409 93.6209 58.2435 93.6416 58.0883C93.6416 58.0573 93.6416 58.0159 93.652 57.9848C93.6623 57.8814 93.6829 57.7676 93.7036 57.6642C93.7036 57.6435 93.7036 57.6228 93.7139 57.6021C93.7346 57.4366 93.7657 57.2607 93.807 57.0848C93.8691 56.7641 93.952 56.4435 94.0554 56.1228C94.1278 55.8848 94.2106 55.6366 94.3037 55.3883C94.583 54.6124 94.945 53.8366 95.3898 53.04C95.4312 52.9573 95.4829 52.8642 95.5346 52.7814C96.8484 50.5159 98.4208 48.8504 100.273 47.7848V55.4814ZM100.273 32.3814C98.4208 33.4469 96.8484 33.6021 95.5346 32.8573C94.3243 32.1642 93.6622 30.8917 93.5795 29.0297C93.5588 28.8745 93.5588 28.7193 93.5588 28.5538L100.273 24.6745V32.3814Z" fill="#2966CB" stroke="white" stroke-width="0.206897" stroke-linecap="round" stroke-linejoin="round"/>
<path d="M100.272 32.3813C98.4206 33.4468 96.8483 33.602 95.5345 32.8571C94.3242 32.164 93.6621 30.8916 93.5793 29.0295L100.272 32.3813Z" fill="white" stroke="white" stroke-width="0.206897" stroke-linecap="round" stroke-linejoin="round"/>
<path d="M100.272 47.7847V55.4812L95.3896 53.0398C95.431 52.9571 95.4828 52.864 95.5345 52.7812C96.8483 50.5157 98.4206 48.8502 100.272 47.7847Z" fill="white" stroke="white" stroke-width="0.206897" stroke-linecap="round" stroke-linejoin="round"/>
<path d="M100.273 55.4814L93.5591 59.3607C93.5591 59.0918 93.5695 58.8331 93.5902 58.5642C93.6006 58.409 93.6213 58.2435 93.6419 58.0883C93.6419 58.0573 93.6419 58.0159 93.6523 57.9849C93.6626 57.8814 93.6832 57.7676 93.7039 57.6642C93.7039 57.6435 93.704 57.6228 93.7144 57.6021C93.735 57.4366 93.766 57.2607 93.8074 57.0849C93.8694 56.7642 93.9523 56.4435 94.0557 56.1228C94.1282 55.8849 94.2109 55.6366 94.304 55.3883C94.5833 54.6125 94.9453 53.8366 95.3901 53.04L100.273 55.4814Z" fill="white" stroke="white" stroke-width="0.206897" stroke-linecap="round" stroke-linejoin="round"/>
<path d="M60.0006 47.9297C60.0006 49.5124 59.6384 51.1366 58.8936 52.8124C58.6453 53.3711 58.3661 53.9297 58.035 54.4987C56.7213 56.7745 55.1385 58.44 53.2971 59.5055V51.7987L60.0006 47.9297Z" fill="white" stroke="white" stroke-width="0.206897" stroke-linecap="round" stroke-linejoin="round"/>
<path d="M86.845 47.8261C86.845 48.1364 86.8348 48.4364 86.8141 48.7468C86.8141 48.9226 86.7933 49.1088 86.7726 49.295C86.7726 49.4813 86.7416 49.6675 86.7105 49.8433C86.6795 50.1019 86.6485 50.3606 86.5967 50.6192C86.5657 50.8157 86.5347 51.0019 86.483 51.1985C86.4209 51.5088 86.3486 51.8295 86.2658 52.1502C86.1831 52.4606 86.0899 52.7709 85.9864 53.0916C85.9761 53.164 85.945 53.2468 85.914 53.3295C85.8623 53.495 85.8105 53.6606 85.7381 53.8261C85.5105 54.4778 85.2312 55.1502 84.9105 55.8123C84.7967 56.0606 84.6726 56.3088 84.5381 56.5675C84.3416 56.9502 84.1347 57.3226 83.9174 57.7054C82.4588 60.2088 80.7726 62.2364 78.8485 63.7778C78.1864 64.3054 77.4933 64.7813 76.7795 65.195C76.5933 65.2985 76.4071 65.4019 76.2312 65.4951C73.8105 66.7675 71.7209 66.964 69.9519 66.095C69.8485 66.0537 69.7554 65.9916 69.6519 65.9399C67.8623 64.9157 66.89 63.0226 66.7348 60.2606C66.7244 60.0019 66.714 59.733 66.714 59.4537C66.714 56.2468 67.6967 52.9468 69.6519 49.5744C70.914 47.3916 72.3624 45.5709 73.9865 44.133C74.8658 43.3364 75.7967 42.6537 76.7795 42.0847C77.7726 41.5157 78.7036 41.1226 79.583 40.895C81.2071 40.4709 82.645 40.6157 83.9174 41.3399C85.0243 41.9709 85.821 42.9433 86.2969 44.2468C86.6589 45.2399 86.845 46.4399 86.845 47.8261Z" fill="white" stroke="white" stroke-width="0.206897" stroke-linecap="round" stroke-linejoin="round"/>
<path d="M33.155 67.2748V117.333L12.4653 106.988V56.9299L19.1792 60.292L25.893 63.6437L32.6068 67.0058L33.155 67.2748Z" fill="#2966CB" stroke="white" stroke-width="0.206897" stroke-linecap="round" stroke-linejoin="round"/>
<path d="M59.9995 78.7261L53.296 82.6054V74.8985C54.3926 74.2675 55.4064 73.9468 56.3167 73.9675C56.9271 73.9675 57.496 74.133 58.0339 74.433C59.3477 75.1778 59.9995 76.6158 59.9995 78.7261Z" fill="white" stroke="white" stroke-width="0.206897" stroke-linecap="round" stroke-linejoin="round"/>
<path d="M46.5831 47.971V94.1814L40.1899 90.9848L39.8693 90.8297V63.3952L25.8934 56.4124V37.6262L33.0416 41.2055L37.6864 43.5228L46.0864 47.7228L46.5831 47.971Z" fill="#2966CB" stroke="white" stroke-width="0.206897" stroke-linecap="round" stroke-linejoin="round"/>
<path d="M106.987 13.0987L86.2969 25.047L66.1347 36.6849L46.5831 47.9711L46.0864 47.7229L37.6864 43.5229L33.0416 41.2056L25.8934 37.6263L86.2969 2.75391L106.987 13.0987Z" fill="#2966CB" stroke="white" stroke-width="0.206897" stroke-linecap="round" stroke-linejoin="round"/>
<path d="M96.9204 72.8194V80.5263L33.1549 117.333V67.2746L37.9343 64.5125L39.8688 63.3953V105.757L96.9204 72.8194Z" fill="#2966CB" stroke="white" stroke-width="0.206897" stroke-linecap="round" stroke-linejoin="round"/>
<path d="M39.8689 63.3954L37.9344 64.5126L33.155 67.2747L32.6068 67.0057L25.893 63.6436L19.1792 60.2919L12.4653 56.9298L19.1792 53.0505L25.893 56.4126L39.8689 63.3954Z" fill="#2966CB" stroke="white" stroke-width="0.206897" stroke-linecap="round" stroke-linejoin="round"/>
<path d="M96.9206 72.8192L39.869 105.757V90.8296L40.1897 90.9847L46.5828 94.1813L89.7725 69.2502L96.9206 72.8192Z" fill="#2966CB" stroke="white" stroke-width="0.206897" stroke-linecap="round" stroke-linejoin="round"/>
<path d="M100.272 24.6746V32.3814L93.5788 29.0297C93.5581 28.8746 93.5581 28.7193 93.5581 28.5538L100.272 24.6746Z" fill="white" stroke="white" stroke-width="0.206897" stroke-linecap="round" stroke-linejoin="round"/>
</svg>
