<svg width="80" height="80" viewBox="0 0 80 80" fill="none" xmlns="http://www.w3.org/2000/svg">
<rect width="80" height="80" rx="40" fill="url(#paint0_linear_35_91)"/>
<g clip-path="url(#clip0_35_91)">
<path d="M54 24C55.0609 24 56.0783 24.4214 56.8284 25.1716C57.5786 25.9217 58 26.9391 58 28V32.536C58.6081 32.8871 59.113 33.392 59.4641 34.0001C59.8152 34.6081 60 35.2979 60 36V44C60 44.7021 59.8152 45.3919 59.4641 45.9999C59.113 46.608 58.6081 47.1129 58 47.464V52C58 53.0609 57.5786 54.0783 56.8284 54.8284C56.0783 55.5786 55.0609 56 54 56H26C24.9391 56 23.9217 55.5786 23.1716 54.8284C22.4214 54.0783 22 53.0609 22 52V28C22 26.9391 22.4214 25.9217 23.1716 25.1716C23.9217 24.4214 24.9391 24 26 24H54ZM54 28H26V52H54V48H46C43.9129 48 41.9084 47.1844 40.4142 45.7272C38.9201 44.27 38.0546 42.2865 38.0024 40.2001C37.9502 38.1136 38.7154 36.0894 40.1349 34.5593C41.5543 33.0291 43.5155 32.1143 45.6 32.01L46 32H54V28ZM56 36H46C44.9391 36 43.9217 36.4214 43.1716 37.1716C42.4214 37.9217 42 38.9391 42 40C42 41.0609 42.4214 42.0783 43.1716 42.8284C43.9217 43.5786 44.9391 44 46 44H56V36ZM48 38C48.5304 38 49.0391 38.2107 49.4142 38.5858C49.7893 38.9609 50 39.4696 50 40C50 40.5304 49.7893 41.0391 49.4142 41.4142C49.0391 41.7893 48.5304 42 48 42C47.4696 42 46.9609 41.7893 46.5858 41.4142C46.2107 41.0391 46 40.5304 46 40C46 39.4696 46.2107 38.9609 46.5858 38.5858C46.9609 38.2107 47.4696 38 48 38Z" fill="white"/>
</g>
<defs>
<linearGradient id="paint0_linear_35_91" x1="40" y1="0" x2="40" y2="80" gradientUnits="userSpaceOnUse">
<stop stop-color="#5B98FD"/>
<stop offset="1" stop-color="#2966CB"/>
</linearGradient>
<clipPath id="clip0_35_91">
<rect width="48" height="48" fill="white" transform="translate(16 16)"/>
</clipPath>
</defs>
</svg>
