<svg width="80" height="80" viewBox="0 0 80 80" fill="none" xmlns="http://www.w3.org/2000/svg">
<rect width="80" height="80" rx="40" fill="url(#paint0_linear_35_101)"/>
<g clip-path="url(#clip0_35_101)">
<path d="M24 24C24.4899 24.0001 24.9627 24.1799 25.3287 24.5054C25.6948 24.8309 25.9287 25.2795 25.986 25.766L26 26V52H56C56.5098 52.0006 57.0001 52.1958 57.3707 52.5457C57.7414 52.8956 57.9645 53.3739 57.9943 53.8828C58.0242 54.3917 57.8587 54.8928 57.5315 55.2837C57.2043 55.6746 56.7402 55.9258 56.234 55.986L56 56H24C23.5101 55.9999 23.0373 55.8201 22.6713 55.4946C22.3052 55.1691 22.0713 54.7205 22.014 54.234L22 54V26C22 25.4696 22.2107 24.9609 22.5858 24.5858C22.9609 24.2107 23.4696 24 24 24ZM56.388 29.636C58.188 29.636 59.088 31.812 57.816 33.084L46.676 44.224C46.2635 44.6362 45.7042 44.8677 45.121 44.8677C44.5378 44.8677 43.9785 44.6362 43.566 44.224L38.05 38.708L30.98 45.778C30.605 46.1533 30.0962 46.3642 29.5657 46.3644C29.0352 46.3646 28.5263 46.154 28.151 45.779C27.7757 45.404 27.5648 44.8952 27.5646 44.3647C27.5644 43.8342 27.775 43.3253 28.15 42.95L36.494 34.606C36.6983 34.4016 36.9409 34.2395 37.2079 34.1288C37.4748 34.0182 37.761 33.9613 38.05 33.9613C38.339 33.9613 38.6252 34.0182 38.8921 34.1288C39.1591 34.2395 39.4017 34.4016 39.606 34.606L45.122 40.122L51.606 33.636H50.778C50.2476 33.636 49.7389 33.4253 49.3638 33.0502C48.9887 32.6751 48.778 32.1664 48.778 31.636C48.778 31.1056 48.9887 30.5969 49.3638 30.2218C49.7389 29.8467 50.2476 29.636 50.778 29.636H56.388Z" fill="white"/>
</g>
<defs>
<linearGradient id="paint0_linear_35_101" x1="40" y1="0" x2="40" y2="80" gradientUnits="userSpaceOnUse">
<stop stop-color="#5B98FD"/>
<stop offset="1" stop-color="#2966CB"/>
</linearGradient>
<clipPath id="clip0_35_101">
<rect width="48" height="48" fill="white" transform="translate(16 16)"/>
</clipPath>
</defs>
</svg>
