<svg width="80" height="80" viewBox="0 0 80 80" fill="none" xmlns="http://www.w3.org/2000/svg">
<rect width="80" height="80" rx="40" fill="url(#paint0_linear_35_80)"/>
<g clip-path="url(#clip0_35_80)">
<g clip-path="url(#clip1_35_80)">
<path fill-rule="evenodd" clip-rule="evenodd" d="M24 24C22.9391 24 21.9217 24.4214 21.1716 25.1716C20.4214 25.9217 20 26.9391 20 28V52C20 53.0609 20.4214 54.0783 21.1716 54.8284C21.9217 55.5786 22.9391 56 24 56H56C57.0609 56 58.0783 55.5786 58.8284 54.8284C59.5786 54.0783 60 53.0609 60 52V28C60 26.9391 59.5786 25.9217 58.8284 25.1716C58.0783 24.4214 57.0609 24 56 24H24ZM24 28H56V52H24V28ZM36.5 35.5C36.5 36.4283 36.1313 37.3185 35.4749 37.9749C34.8185 38.6313 33.9283 39 33 39C32.0717 39 31.1815 38.6313 30.5251 37.9749C29.8687 37.3185 29.5 36.4283 29.5 35.5C29.5 34.5717 29.8687 33.6815 30.5251 33.0251C31.1815 32.3687 32.0717 32 33 32C33.9283 32 34.8185 32.3687 35.4749 33.0251C36.1313 33.6815 36.5 34.5717 36.5 35.5ZM26 45C26 43.6739 26.5268 42.4021 27.4645 41.4645C28.4021 40.5268 29.6739 40 31 40H35C35.6566 40 36.3068 40.1293 36.9134 40.3806C37.52 40.6319 38.0712 41.0002 38.5355 41.4645C38.9998 41.9288 39.3681 42.48 39.6194 43.0866C39.8707 43.6932 40 44.3434 40 45V46C40 46.5304 39.7893 47.0391 39.4142 47.4142C39.0391 47.7893 38.5304 48 38 48C37.4696 48 36.9609 47.7893 36.5858 47.4142C36.2107 47.0391 36 46.5304 36 46V45C36 44.7348 35.8946 44.4804 35.7071 44.2929C35.5196 44.1054 35.2652 44 35 44H31C30.7348 44 30.4804 44.1054 30.2929 44.2929C30.1054 44.4804 30 44.7348 30 45V46C30 46.5304 29.7893 47.0391 29.4142 47.4142C29.0391 47.7893 28.5304 48 28 48C27.4696 48 26.9609 47.7893 26.5858 47.4142C26.2107 47.0391 26 46.5304 26 46V45ZM42 38C42 37.4696 42.2107 36.9609 42.5858 36.5858C42.9609 36.2107 43.4696 36 44 36H48C48.5304 36 49.0391 36.2107 49.4142 36.5858C49.7893 36.9609 50 37.4696 50 38C50 38.5304 49.7893 39.0391 49.4142 39.4142C49.0391 39.7893 48.5304 40 48 40H44C43.4696 40 42.9609 39.7893 42.5858 39.4142C42.2107 39.0391 42 38.5304 42 38ZM44 42C43.4696 42 42.9609 42.2107 42.5858 42.5858C42.2107 42.9609 42 43.4696 42 44C42 44.5304 42.2107 45.0391 42.5858 45.4142C42.9609 45.7893 43.4696 46 44 46H52C52.5304 46 53.0391 45.7893 53.4142 45.4142C53.7893 45.0391 54 44.5304 54 44C54 43.4696 53.7893 42.9609 53.4142 42.5858C53.0391 42.2107 52.5304 42 52 42H44Z" fill="white"/>
</g>
</g>
<defs>
<linearGradient id="paint0_linear_35_80" x1="40" y1="0" x2="40" y2="80" gradientUnits="userSpaceOnUse">
<stop stop-color="#5B98FD"/>
<stop offset="1" stop-color="#2966CB"/>
</linearGradient>
<clipPath id="clip0_35_80">
<rect width="48" height="48" fill="white" transform="translate(16 16)"/>
</clipPath>
<clipPath id="clip1_35_80">
<rect width="48" height="48" fill="white" transform="translate(16 16)"/>
</clipPath>
</defs>
</svg>
