<svg width="80" height="80" viewBox="0 0 80 80" fill="none" xmlns="http://www.w3.org/2000/svg">
<rect width="80" height="80" rx="40" fill="url(#paint0_linear_35_70)"/>
<g clip-path="url(#clip0_35_70)">
<path fill-rule="evenodd" clip-rule="evenodd" d="M38 24C37.2121 24 36.4319 24.1552 35.7039 24.4567C34.9759 24.7583 34.3145 25.2002 33.7574 25.7574C33.2002 26.3145 32.7583 26.9759 32.4567 27.7039C32.1552 28.4319 32 29.2121 32 30C32 30.7879 32.1552 31.5681 32.4567 32.2961C32.7583 33.0241 33.2002 33.6855 33.7574 34.2426C34.3145 34.7998 34.9759 35.2417 35.7039 35.5433C36.4319 35.8448 37.2121 36 38 36C39.5913 36 41.1174 35.3679 42.2426 34.2426C43.3679 33.1174 44 31.5913 44 30C44 28.4087 43.3679 26.8826 42.2426 25.7574C41.1174 24.6321 39.5913 24 38 24ZM28 30C28 27.3478 29.0536 24.8043 30.9289 22.9289C32.8043 21.0536 35.3478 20 38 20C40.6522 20 43.1957 21.0536 45.0711 22.9289C46.9464 24.8043 48 27.3478 48 30C48 32.6522 46.9464 35.1957 45.0711 37.0711C43.1957 38.9464 40.6522 40 38 40C35.3478 40 32.8043 38.9464 30.9289 37.0711C29.0536 35.1957 28 32.6522 28 30ZM24.826 51.202C24.18 52.022 24 52.642 24 53C24 53.244 24.074 53.502 24.51 53.852C25.008 54.252 25.874 54.666 27.198 55.016C29.834 55.716 33.622 56 38 56C38.444 56 38.882 55.996 39.316 55.99C39.8464 55.9828 40.358 56.1867 40.7381 56.5567C41.1183 56.9267 41.3358 57.4326 41.343 57.963C41.3502 58.4934 41.1463 59.005 40.7763 59.3851C40.4063 59.7653 39.9004 59.9828 39.37 59.99C38.918 59.996 38.46 60 38 60C33.542 60 29.33 59.72 26.174 58.884C24.604 58.468 23.126 57.872 22.006 56.972C20.82 56.02 20 54.69 20 53C20 51.426 20.716 49.954 21.688 48.722C22.676 47.472 24.042 46.322 25.644 45.342C28.85 43.39 33.21 42 38 42C38.894 42 39.774 42.048 40.632 42.14C41.1595 42.196 41.6432 42.4592 41.9766 42.8718C42.3101 43.2843 42.466 43.8125 42.41 44.34C42.354 44.8675 42.0908 45.3512 41.6782 45.6846C41.2657 46.0181 40.7375 46.174 40.21 46.118C39.49 46.04 38.75 46 38 46C33.954 46 30.314 47.18 27.728 48.758C26.434 49.546 25.456 50.402 24.826 51.202ZM59.416 48.136C59.7803 47.7588 59.9819 47.2536 59.9773 46.7292C59.9728 46.2048 59.7625 45.7032 59.3916 45.3324C59.0208 44.9615 58.5192 44.7512 57.9948 44.7467C57.4704 44.7421 56.9652 44.9437 56.588 45.308L50.224 51.672L47.396 48.844C47.0188 48.4797 46.5136 48.2781 45.9892 48.2827C45.4648 48.2872 44.9632 48.4975 44.5924 48.8684C44.2215 49.2392 44.0112 49.7408 44.0067 50.2652C44.0021 50.7896 44.2037 51.2948 44.568 51.672L48.668 55.772C48.8723 55.9764 49.1149 56.1385 49.3819 56.2492C49.6488 56.3598 49.935 56.4167 50.224 56.4167C50.513 56.4167 50.7992 56.3598 51.0661 56.2492C51.3331 56.1385 51.5757 55.9764 51.78 55.772L59.416 48.136Z" fill="white"/>
</g>
<defs>
<linearGradient id="paint0_linear_35_70" x1="40" y1="0" x2="40" y2="80" gradientUnits="userSpaceOnUse">
<stop stop-color="#5B98FD"/>
<stop offset="1" stop-color="#2966CB"/>
</linearGradient>
<clipPath id="clip0_35_70">
<rect width="48" height="48" fill="white" transform="translate(16 16)"/>
</clipPath>
</defs>
</svg>
